# Blender v2.79 (sub 0) OBJ File: 'octopusMinigun.blend'
# www.blender.org
mtllib octopusMinigun.mtl
o Icosphere_Icosphere.001
v -0.010040 -0.323165 -0.153323
v 0.775153 0.036977 -0.093973
v 0.004073 0.296002 0.403045
v -0.739997 0.078653 -0.190079
v -0.560615 -0.781120 -1.067985
v 0.488420 -0.774751 -0.997066
v 0.382885 0.666086 -0.340216
v -0.325037 0.661743 -0.388008
v -0.857979 -0.059574 -1.568369
v 0.003310 -0.601899 -1.896644
v 0.839406 -0.049283 -1.453630
v 0.008481 0.488889 -1.802315
v 0.120090 -0.478331 0.845568
v -0.034706 -0.808921 -0.193200
v 0.525454 -0.536106 0.264553
v -0.573187 -0.502692 0.236659
v -0.142891 0.395569 0.378331
v -0.690100 0.235725 -0.057868
v -0.384928 0.664545 -0.203431
v 0.742029 0.211916 0.002863
v 0.173417 0.402927 0.369376
v 0.452761 0.675836 -0.178721
v -0.008808 -0.105689 0.455621
v 0.649006 -0.158181 0.085105
v -0.643580 -0.100536 0.002528
v -0.034126 -0.794033 0.339663
v 0.506207 -0.774556 0.622459
v 0.254447 -0.701691 0.883579
v 0.225997 -0.769799 0.697341
v 0.033434 -0.762450 0.901041
v -0.331333 -0.685894 0.494489
v 0.026785 -0.870158 0.628757
v -0.432391 -0.857488 0.241184
v -0.430004 -0.864452 -0.022071
v -0.732708 -0.819397 0.190296
v 0.027313 -1.006619 0.293786
v 0.023702 -1.014446 -0.014480
v 0.383502 -0.992854 0.250335
v 0.089648 -1.808624 0.284956
v 0.086924 -1.814527 0.052451
v 0.358298 -1.798242 0.252183
v 0.227248 -2.732971 0.282591
v 0.225722 -2.737666 0.106046
v 0.428887 -2.701099 0.257706
v 0.242036 -3.577429 0.237834
v 0.489075 -1.412339 0.885962
v 0.299497 -1.357470 1.082588
v 0.278073 -1.408757 0.942349
v 0.562607 -2.283526 1.017132
v 0.439694 -2.292722 1.126031
v 0.436756 -2.302840 1.037597
v 0.434806 -3.148043 1.154447
v -0.315067 -1.460498 1.073836
v -0.533008 -1.485014 0.884266
v -0.317108 -1.517014 0.930659
v -0.190455 -2.411437 1.128355
v -0.302018 -2.452677 1.022432
v -0.185849 -2.420228 1.044361
v -0.155930 -3.135374 1.146302
v -0.409524 -1.674210 0.239325
v -0.405917 -1.678750 0.031939
v -0.642513 -1.725082 0.199237
v -0.253347 -2.632539 0.232842
v -0.250927 -2.635199 0.104232
v -0.395408 -2.673661 0.207981
v -0.187706 -3.330271 0.198954
v 0.005241 0.760851 -0.365711
v -0.004309 -0.933524 -1.033316
v 0.457646 -3.188865 1.753967
v 0.498560 -2.377748 1.669888
v 0.440918 -3.231491 1.334615
v 0.481833 -2.420374 1.250536
v 0.674146 -3.200558 1.746519
v 0.715060 -2.389441 1.662440
v 0.657418 -3.243183 1.327168
v 0.698333 -2.432067 1.243089
v 0.508707 -2.664073 1.292772
v 0.519556 -2.449001 1.270478
v 0.483918 -2.727242 0.671321
v 0.494767 -2.512170 0.649027
v 0.648355 -2.671615 1.287968
v 0.659204 -2.456543 1.265674
v 0.623567 -2.734783 0.666517
v 0.634415 -2.519712 0.644223
v 0.489385 -3.339260 1.721224
v 0.496907 -3.190140 1.705766
v 0.484308 -3.352196 1.593963
v 0.491831 -3.203075 1.578505
v 0.624243 -3.346544 1.716585
v 0.631765 -3.197423 1.701127
v 0.619166 -3.359479 1.589324
v 0.626688 -3.210359 1.573866
v 0.008420 -3.530264 0.639711
v 0.051269 -2.715053 0.623934
v 0.007992 -3.538404 0.217946
v 0.050841 -2.723193 0.202169
v 0.225064 -3.541651 0.639711
v 0.267914 -2.726440 0.623934
v 0.224636 -3.549792 0.217946
v 0.267486 -2.734580 0.202169
v 0.076449 -2.969573 0.225329
v 0.087810 -2.753416 0.221146
v 0.075814 -2.981636 -0.399699
v 0.087176 -2.765479 -0.403882
v 0.216190 -2.976918 0.225329
v 0.227552 -2.760761 0.221146
v 0.215556 -2.988981 -0.399699
v 0.226918 -2.772824 -0.403883
v 0.041640 -3.677526 0.596023
v 0.049518 -3.527652 0.593123
v 0.041510 -3.679996 0.468030
v 0.049388 -3.530123 0.465129
v 0.176588 -3.684619 0.596023
v 0.184466 -3.534745 0.593123
v 0.176458 -3.687089 0.468030
v 0.184336 -3.537216 0.465129
v -0.259266 -3.413080 0.706805
v -0.312801 -2.598501 0.691026
v -0.258731 -3.421215 0.285039
v -0.312267 -2.606637 0.269261
v -0.042789 -3.398853 0.706804
v -0.096325 -2.584274 0.691025
v -0.042255 -3.406988 0.285039
v -0.095790 -2.592409 0.269260
v -0.257798 -2.848281 0.292421
v -0.271993 -2.632291 0.288237
v -0.257006 -2.860337 -0.332607
v -0.271202 -2.644347 -0.336791
v -0.118165 -2.839104 0.292421
v -0.132360 -2.623115 0.288237
v -0.117373 -2.851160 -0.332607
v -0.131568 -2.635170 -0.336791
v -0.208919 -3.555400 0.663117
v -0.218762 -3.405643 0.660216
v -0.208757 -3.557868 0.535123
v -0.218599 -3.408112 0.532223
v -0.074076 -3.546538 0.663117
v -0.083918 -3.396780 0.660216
v -0.073914 -3.549006 0.535123
v -0.083756 -3.399250 0.532222
v -0.379756 -3.191068 1.742928
v -0.483930 -2.386140 1.654088
v -0.368424 -3.235880 1.323624
v -0.472598 -2.430952 1.234784
v -0.164664 -3.162921 1.745733
v -0.268839 -2.357993 1.656893
v -0.153332 -3.207733 1.326430
v -0.257506 -2.402805 1.237589
v -0.403646 -2.665627 1.280267
v -0.431267 -2.452196 1.256710
v -0.386852 -2.732036 0.658886
v -0.414474 -2.518605 0.635329
v -0.264905 -2.647471 1.282076
v -0.292528 -2.434041 1.258519
v -0.248112 -2.713880 0.660695
v -0.275734 -2.500449 0.637139
v -0.319523 -3.333097 1.712966
v -0.338675 -3.185114 1.696633
v -0.316084 -3.346696 1.585720
v -0.335235 -3.198714 1.569387
v -0.185542 -3.315564 1.714714
v -0.204694 -3.167582 1.698380
v -0.182103 -3.329164 1.587467
v -0.201255 -3.181181 1.571134
vt 0.200284 0.432670
vt 0.372267 0.432392
vt 0.373413 0.287484
vt 0.200730 0.352110
vt 0.237041 0.719507
vt 0.247433 0.510755
vt 0.470994 0.626632
vt 0.200284 0.432670
vt 0.034871 0.432891
vt 0.035391 0.247185
vt 0.200730 0.352110
vt 0.237041 0.719507
vt 0.470994 0.626632
vt 0.525241 0.512006
vt 0.486030 0.778517
vt 0.251569 0.899362
vt 0.209352 0.858223
vt 0.206883 0.779797
vt 0.047921 0.846684
vt 0.251569 0.899362
vt 0.209352 0.858223
vt 0.123202 0.835233
vt 0.486030 0.778517
vt 0.704387 0.690068
vt 0.227325 0.982562
vt 0.595957 0.982691
vt 0.801539 0.970631
vt 0.908356 0.970631
vt 0.908199 0.848147
vt 0.801529 0.848400
vt 0.801539 0.970631
vt 0.801529 0.848400
vt 0.908199 0.848147
vt 0.059413 0.160401
vt 0.210369 0.160374
vt 0.121474 0.260766
vt 0.206883 0.779797
vt 0.210369 0.160374
vt 0.059413 0.160401
vt 0.121474 0.260766
vt 0.123202 0.835233
vt 0.182480 0.681523
vt 0.006057 0.759670
vt 0.182480 0.681523
vt 0.712345 0.848769
vt 0.801529 0.848400
vt 0.802042 0.689646
vt 0.711625 0.689880
vt 0.712300 0.969803
vt 0.712345 0.848769
vt 0.801529 0.848400
vt 0.908356 0.970631
vt 0.992115 0.970229
vt 0.992618 0.848768
vt 0.908199 0.848147
vt 0.711625 0.689880
vt 0.802042 0.689646
vt 0.908199 0.848147
vt 0.992618 0.848768
vt 0.802042 0.689646
vt 0.907958 0.689577
vt 0.712300 0.969803
vt 0.712345 0.848769
vt 0.992115 0.970229
vt 0.992618 0.848768
vt 0.907958 0.689577
vt 0.802042 0.689646
vt 0.712345 0.848769
vt 0.992618 0.848768
vt 0.908128 0.566818
vt 0.801736 0.567104
vt 0.711625 0.689880
vt 0.992677 0.690193
vt 0.851904 0.442122
vt 0.712330 0.567533
vt 0.992174 0.566930
vt 0.752232 0.445317
vt 0.801736 0.567104
vt 0.712330 0.567533
vt 0.992677 0.690193
vt 0.907958 0.689577
vt 0.752232 0.445317
vt 0.992174 0.566930
vt 0.908128 0.566818
vt 0.851904 0.442122
vt 0.712330 0.567533
vt 0.801736 0.567104
vt 0.907958 0.689577
vt 0.992677 0.690193
vt 0.752232 0.445317
vt 0.908128 0.566818
vt 0.992174 0.566930
vt 0.851904 0.442122
vt 0.801736 0.567104
vt 0.908128 0.566818
vt 0.711625 0.689880
vt 0.992677 0.690193
vt 0.851904 0.442122
vt 0.712330 0.567533
vt 0.992174 0.566930
vt 0.752232 0.445317
vt 0.802647 0.039684
vt 0.802647 0.317104
vt 0.948417 0.317104
vt 0.948417 0.039684
vt 0.841351 0.400297
vt 0.563931 0.400297
vt 0.563931 0.325331
vt 0.841351 0.325331
vt 0.948417 0.039684
vt 0.948417 0.317104
vt 0.802647 0.317104
vt 0.802647 0.039684
vt 0.563931 0.325331
vt 0.841351 0.325331
vt 0.841351 0.400297
vt 0.563931 0.400297
vt 0.634082 0.180792
vt 0.559116 0.180792
vt 0.559116 0.037461
vt 0.634082 0.037461
vt 0.649803 0.037461
vt 0.724769 0.037461
vt 0.724769 0.180792
vt 0.649803 0.180792
vt 0.561359 0.034325
vt 0.636171 0.034325
vt 0.636171 0.246732
vt 0.561360 0.246732
vt 0.733440 0.177315
vt 0.733440 0.103756
vt 0.781795 0.103756
vt 0.781795 0.177315
vt 0.561359 0.034325
vt 0.636171 0.034325
vt 0.636171 0.246732
vt 0.561359 0.246732
vt 0.781795 0.103756
vt 0.781795 0.177315
vt 0.733440 0.177315
vt 0.733440 0.103756
vt 0.779131 0.256710
vt 0.779131 0.305065
vt 0.566725 0.305065
vt 0.566725 0.256710
vt 0.779131 0.256710
vt 0.779131 0.305065
vt 0.566725 0.305065
vt 0.566725 0.256710
vt 0.738542 0.090874
vt 0.738542 0.039872
vt 0.782779 0.039872
vt 0.782779 0.090874
vt 0.738542 0.090874
vt 0.738542 0.039872
vt 0.785238 0.039872
vt 0.785238 0.090874
vt 0.782779 0.039872
vt 0.782779 0.090874
vt 0.738542 0.090874
vt 0.738542 0.039872
vt 0.782779 0.039872
vt 0.782779 0.090874
vt 0.736083 0.090874
vt 0.736083 0.039872
vt 0.680857 0.241839
vt 0.680857 0.195924
vt 0.725094 0.195924
vt 0.725094 0.241839
vt 0.802647 0.039684
vt 0.802647 0.317104
vt 0.948417 0.317104
vt 0.948417 0.039684
vt 0.841351 0.400297
vt 0.563931 0.400297
vt 0.563931 0.325331
vt 0.841351 0.325331
vt 0.948417 0.039684
vt 0.948417 0.317104
vt 0.802647 0.317104
vt 0.802647 0.039684
vt 0.563931 0.325331
vt 0.841351 0.325331
vt 0.841351 0.400297
vt 0.563931 0.400297
vt 0.634082 0.180792
vt 0.559116 0.180792
vt 0.559116 0.037461
vt 0.634082 0.037461
vt 0.649803 0.037461
vt 0.724769 0.037461
vt 0.724769 0.180792
vt 0.649803 0.180792
vt 0.561359 0.034325
vt 0.636171 0.034325
vt 0.636171 0.246732
vt 0.561360 0.246732
vt 0.733440 0.177315
vt 0.733440 0.103756
vt 0.781795 0.103756
vt 0.781795 0.177315
vt 0.561359 0.034325
vt 0.636171 0.034325
vt 0.636171 0.246732
vt 0.561359 0.246732
vt 0.781795 0.103756
vt 0.781795 0.177315
vt 0.733440 0.177315
vt 0.733440 0.103756
vt 0.779131 0.256710
vt 0.779131 0.305065
vt 0.566725 0.305065
vt 0.566725 0.256710
vt 0.779131 0.256710
vt 0.779131 0.305065
vt 0.566725 0.305065
vt 0.566725 0.256710
vt 0.738542 0.090874
vt 0.738542 0.039872
vt 0.782779 0.039872
vt 0.782779 0.090874
vt 0.738542 0.090874
vt 0.738542 0.039872
vt 0.785238 0.039872
vt 0.785238 0.090874
vt 0.782779 0.039872
vt 0.782779 0.090874
vt 0.738542 0.090874
vt 0.738542 0.039872
vt 0.782779 0.039872
vt 0.782779 0.090874
vt 0.736083 0.090874
vt 0.736083 0.039872
vt 0.680857 0.241839
vt 0.680857 0.195924
vt 0.725094 0.195924
vt 0.725094 0.241839
vt 0.802647 0.039684
vt 0.802647 0.317104
vt 0.948417 0.317104
vt 0.948417 0.039684
vt 0.841351 0.400297
vt 0.563931 0.400297
vt 0.563931 0.325331
vt 0.841351 0.325331
vt 0.948417 0.039684
vt 0.948417 0.317104
vt 0.802647 0.317104
vt 0.802647 0.039684
vt 0.563931 0.325331
vt 0.841351 0.325331
vt 0.841351 0.400297
vt 0.563931 0.400297
vt 0.634082 0.180792
vt 0.559116 0.180792
vt 0.559116 0.037461
vt 0.634082 0.037461
vt 0.649803 0.037461
vt 0.724769 0.037461
vt 0.724769 0.180792
vt 0.649803 0.180792
vt 0.561359 0.034325
vt 0.636171 0.034325
vt 0.636171 0.246732
vt 0.561360 0.246732
vt 0.733440 0.177315
vt 0.733440 0.103756
vt 0.781795 0.103756
vt 0.781795 0.177315
vt 0.561359 0.034325
vt 0.636171 0.034325
vt 0.636171 0.246732
vt 0.561359 0.246732
vt 0.781795 0.103756
vt 0.781795 0.177315
vt 0.733440 0.177315
vt 0.733440 0.103756
vt 0.779131 0.256710
vt 0.779131 0.305065
vt 0.566725 0.305065
vt 0.566725 0.256710
vt 0.779131 0.256710
vt 0.779131 0.305065
vt 0.566725 0.305065
vt 0.566725 0.256710
vt 0.738542 0.090874
vt 0.738542 0.039872
vt 0.782779 0.039872
vt 0.782779 0.090874
vt 0.738542 0.090874
vt 0.738542 0.039872
vt 0.785238 0.039872
vt 0.785238 0.090874
vt 0.782779 0.039872
vt 0.782779 0.090874
vt 0.738542 0.090874
vt 0.738542 0.039872
vt 0.782779 0.039872
vt 0.782779 0.090874
vt 0.736083 0.090874
vt 0.736083 0.039872
vt 0.680857 0.241839
vt 0.680857 0.195924
vt 0.725094 0.195924
vt 0.725094 0.241839
vt 0.802647 0.039684
vt 0.802647 0.317104
vt 0.948417 0.317104
vt 0.948417 0.039684
vt 0.841351 0.400297
vt 0.563931 0.400297
vt 0.563931 0.325331
vt 0.841351 0.325331
vt 0.948417 0.039684
vt 0.948417 0.317104
vt 0.802647 0.317104
vt 0.802647 0.039684
vt 0.563931 0.325331
vt 0.841351 0.325331
vt 0.841351 0.400297
vt 0.563931 0.400297
vt 0.634082 0.180792
vt 0.559116 0.180792
vt 0.559116 0.037461
vt 0.634082 0.037461
vt 0.649803 0.037461
vt 0.724769 0.037461
vt 0.724769 0.180792
vt 0.649803 0.180792
vt 0.561359 0.034325
vt 0.636171 0.034325
vt 0.636171 0.246732
vt 0.561360 0.246732
vt 0.733440 0.177315
vt 0.733440 0.103756
vt 0.781795 0.103756
vt 0.781795 0.177315
vt 0.561359 0.034325
vt 0.636171 0.034325
vt 0.636171 0.246732
vt 0.561359 0.246732
vt 0.781795 0.103756
vt 0.781795 0.177315
vt 0.733440 0.177315
vt 0.733440 0.103756
vt 0.779131 0.256710
vt 0.779131 0.305065
vt 0.566725 0.305065
vt 0.566725 0.256710
vt 0.779131 0.256710
vt 0.779131 0.305065
vt 0.566725 0.305065
vt 0.566725 0.256710
vt 0.738542 0.090874
vt 0.738542 0.039872
vt 0.782779 0.039872
vt 0.782779 0.090874
vt 0.738542 0.090874
vt 0.738542 0.039872
vt 0.785238 0.039872
vt 0.785238 0.090874
vt 0.782779 0.039872
vt 0.782779 0.090874
vt 0.738542 0.090874
vt 0.738542 0.039872
vt 0.782779 0.039872
vt 0.782779 0.090874
vt 0.736083 0.090874
vt 0.736083 0.039872
vt 0.680857 0.241839
vt 0.680857 0.195924
vt 0.725094 0.195924
vt 0.725094 0.241839
vn -0.5109 -0.2087 -0.8339
vn 0.3021 -0.7547 0.5824
vn 0.6119 0.4808 0.6280
vn -0.4108 -0.6919 0.5937
vn -0.2523 -0.7959 0.5504
vn 0.9143 -0.3992 0.0685
vn 0.8428 0.3739 -0.3872
vn 0.5349 0.8295 0.1610
vn -0.9437 -0.3113 0.1120
vn 0.3111 -0.8881 -0.3384
vn 0.8474 0.5309 0.0064
vn -0.2801 0.8217 0.4964
vn -0.8129 0.5823 0.0112
vn -0.5871 -0.6106 -0.5316
vn 0.6463 -0.6052 -0.4648
vn 0.5975 0.7634 -0.2455
vn -0.2716 0.9455 -0.1796
vn -0.5641 0.7931 -0.2299
vn -0.3086 0.0834 -0.9475
vn 0.4272 0.0759 -0.9010
vn 0.1589 -0.1072 0.9815
vn -0.2062 -0.0694 0.9761
vn 0.5427 -0.2240 -0.8095
vn -0.5701 0.4214 0.7053
vn -0.5971 0.6041 0.5277
vn -0.8250 0.4937 -0.2752
vn -0.4542 -0.4848 0.7474
vn 0.5696 0.5822 0.5802
vn -0.5026 0.8484 0.1663
vn 0.4064 -0.3824 0.8298
vn -0.6104 0.2319 0.7574
vn 0.3835 -0.7467 -0.5435
vn 0.5396 0.1924 0.8196
vn -0.3942 -0.7629 -0.5125
vn -0.2462 -0.3644 -0.8981
vn -0.4208 -0.8875 -0.1879
vn 0.2138 -0.9138 -0.3455
vn -0.7254 -0.5027 0.4702
vn 0.6925 0.5612 0.4533
vn 0.1038 -0.4608 -0.8814
vn 0.9789 -0.1733 -0.1081
vn -0.6636 0.2519 0.7044
vn -0.1680 -0.0070 0.9858
vn -0.4466 0.3968 -0.8020
vn 0.1507 -0.9882 0.0275
vn 0.1212 -0.0015 0.9926
vn 0.6465 -0.2597 -0.7173
vn -0.9622 -0.2720 0.0121
vn 0.1203 0.0154 0.9926
vn 0.5934 -0.0204 -0.8046
vn -0.9969 -0.0776 0.0136
vn 0.1301 -0.0502 0.9902
vn 0.5916 0.0418 -0.8052
vn -0.9890 -0.1476 0.0141
vn 0.6073 -0.1116 -0.7866
vn -0.9998 -0.0180 0.0091
vn -0.2131 -0.1518 -0.9652
vn -0.9872 -0.0198 0.1581
vn 0.7313 0.2436 0.6371
vn -0.1388 -0.1353 -0.9810
vn -0.9783 -0.1489 0.1442
vn 0.7023 0.1504 0.6958
vn -0.9995 0.0068 0.0324
vn 0.6621 0.0211 0.7491
vn 0.2008 -0.0924 -0.9753
vn 0.8996 -0.4123 0.1441
vn -0.6124 0.4652 0.6392
vn 0.2186 -0.1287 -0.9673
vn 0.9906 0.1342 -0.0274
vn -0.6616 -0.0475 0.7483
vn 0.9976 0.0488 0.0496
vn -0.6856 -0.0147 0.7278
vn -0.1626 -0.0332 0.9861
vn -0.5742 -0.0680 -0.8159
vn 0.9995 0.0292 0.0120
vn -0.1545 -0.0624 0.9860
vn -0.5504 -0.1511 -0.8211
vn 0.9869 0.1609 0.0143
vn -0.5468 -0.1617 -0.8215
vn 0.9955 0.0928 0.0168
vn -0.2270 -0.9085 -0.3510
vn 0.1769 0.8421 0.5095
vn 0.2508 0.9512 -0.1795
vn 0.2172 -0.8014 0.5573
vn -0.9980 0.0539 0.0343
vn -0.0397 -0.1010 -0.9941
vn 0.9980 -0.0539 -0.0343
vn 0.0397 0.1010 0.9941
vn -0.0501 -0.9934 0.1030
vn 0.0501 0.9934 -0.1030
vn -0.9986 0.0525 0.0000
vn -0.0010 -0.0193 -0.9998
vn 0.9986 -0.0525 -0.0000
vn 0.0010 0.0193 0.9998
vn -0.0525 -0.9984 0.0193
vn 0.0525 0.9984 -0.0193
vn -0.9978 -0.0656 0.0000
vn 0.0013 -0.0193 -0.9998
vn 0.9978 0.0656 -0.0000
vn -0.0013 0.0193 0.9998
vn 0.0656 -0.9977 0.0193
vn -0.0656 0.9977 -0.0193
vn -0.9915 -0.1297 -0.0129
vn 0.0269 -0.1062 -0.9940
vn 0.9915 0.1297 0.0129
vn -0.0269 0.1062 0.9940
vn 0.1276 -0.9858 0.1088
vn -0.1276 0.9858 -0.1088
usemtl Material.001
s off
f 25/1/1 1/2/1 14/3/1 16/4/1
f 2/5/2 1/6/2 6/7/2
f 24/8/3 23/9/3 13/10/3 15/11/3
f 1/6/4 4/12/4 5/13/4
f 1/6/5 5/13/5 68/14/5
f 2/5/6 6/7/6 11/15/6
f 2/5/7 7/16/7 22/17/7 20/18/7
f 3/19/8 8/20/8 19/21/8 17/22/8
f 5/13/9 4/12/9 9/23/9
f 6/7/10 68/14/10 10/24/10
f 2/5/11 11/15/11 7/16/11
f 3/19/12 67/25/12 8/20/12
f 4/12/13 8/20/13 9/23/13
f 5/13/14 9/23/14 10/24/14
f 6/7/15 10/24/15 11/15/15
f 7/16/16 11/15/16 12/26/16
f 8/20/17 67/25/17 12/26/17
f 9/23/18 8/20/18 12/26/18
f 10/24/19 9/23/19 12/26/19
f 11/15/20 10/24/20 12/26/20
f 15/27/21 26/28/21 36/29/21 38/30/21
f 26/28/22 16/31/22 35/32/22 33/33/22
f 1/2/23 24/8/23 15/11/23 14/3/23
f 23/9/24 25/1/24 16/4/24 13/10/24
f 18/34/25 17/35/25 19/36/25
f 8/20/26 4/12/26 18/37/26 19/21/26
f 4/12/27 3/19/27 17/22/27 18/37/27
f 21/38/28 20/39/28 22/40/28
f 7/16/29 3/19/29 21/41/29 22/17/29
f 3/19/30 2/5/30 20/18/30 21/41/30
f 3/19/31 4/12/31 25/42/31 23/43/31
f 1/6/32 2/5/32 24/44/32
f 2/5/33 3/19/33 23/43/33 24/44/33
f 4/12/34 1/6/34 25/42/34
f 29/45/35 27/46/35 46/47/35 48/48/35
f 16/31/36 26/49/36 32/50/36 31/51/36
f 26/49/37 15/27/37 27/46/37 29/45/37
f 13/52/38 26/53/38 29/54/38 28/55/38
f 15/27/39 13/52/39 28/55/39 27/46/39
f 31/51/40 32/50/40 55/56/40 54/57/40
f 26/53/41 13/52/41 30/58/41 32/59/41
f 13/52/42 16/31/42 31/51/42 30/58/42
f 33/33/43 35/32/43 62/60/43 60/61/43
f 16/31/44 14/62/44 34/63/44 35/32/44
f 14/64/45 26/28/45 33/33/45 34/65/45
f 38/30/46 36/29/46 39/66/46 41/67/46
f 14/62/47 15/27/47 38/30/47 37/68/47
f 26/28/48 14/64/48 37/69/48 36/29/48
f 41/67/49 39/66/49 42/70/49 44/71/49
f 37/68/50 38/30/50 41/67/50 40/72/50
f 36/29/51 37/69/51 40/73/51 39/66/51
f 44/71/52 42/70/52 45/74/52
f 40/72/53 41/67/53 44/71/53 43/75/53
f 39/66/54 40/73/54 43/76/54 42/70/54
f 43/75/55 44/71/55 45/77/55
f 42/70/56 43/76/56 45/74/56
f 48/48/57 46/47/57 49/78/57 51/79/57
f 28/55/58 29/54/58 48/80/58 47/81/58
f 27/46/59 28/55/59 47/81/59 46/47/59
f 51/79/60 49/78/60 52/82/60
f 47/81/61 48/80/61 51/83/61 50/84/61
f 46/47/62 47/81/62 50/84/62 49/78/62
f 50/84/63 51/83/63 52/85/63
f 49/78/64 50/84/64 52/85/64
f 54/57/65 55/56/65 58/86/65 57/87/65
f 32/59/66 30/58/66 53/88/66 55/89/66
f 30/58/67 31/51/67 54/57/67 53/88/67
f 57/87/68 58/86/68 59/90/68
f 55/89/69 53/88/69 56/91/69 58/92/69
f 53/88/70 54/57/70 57/87/70 56/91/70
f 58/92/71 56/91/71 59/93/71
f 56/91/72 57/87/72 59/93/72
f 60/61/73 62/60/73 65/94/73 63/95/73
f 35/32/74 34/63/74 61/96/74 62/60/74
f 34/65/75 33/33/75 60/61/75 61/97/75
f 63/95/76 65/94/76 66/98/76
f 62/60/77 61/96/77 64/99/77 65/94/77
f 61/97/78 60/61/78 63/95/78 64/100/78
f 65/94/79 64/99/79 66/101/79
f 64/100/80 63/95/80 66/98/80
f 10/24/81 68/14/81 5/13/81
f 67/25/82 3/19/82 7/16/82
f 12/26/83 67/25/83 7/16/83
f 68/14/84 6/7/84 1/6/84
f 69/102/85 70/103/85 72/104/85 71/105/85
f 71/106/86 72/107/86 76/108/86 75/109/86
f 75/110/87 76/111/87 74/112/87 73/113/87
f 73/114/88 74/115/88 70/116/88 69/117/88
f 71/118/89 75/119/89 73/120/89 69/121/89
f 76/122/90 72/123/90 70/124/90 74/125/90
f 77/126/85 78/127/85 80/128/85 79/129/85
f 79/130/86 80/131/86 84/132/86 83/133/86
f 83/134/87 84/135/87 82/136/87 81/137/87
f 81/138/88 82/139/88 78/140/88 77/141/88
f 79/142/89 83/143/89 81/144/89 77/145/89
f 84/146/90 80/147/90 78/148/90 82/149/90
f 85/150/85 86/151/85 88/152/85 87/153/85
f 87/154/86 88/155/86 92/156/86 91/157/86
f 91/158/87 92/159/87 90/160/87 89/161/87
f 89/162/88 90/163/88 86/164/88 85/165/88
f 87/166/89 91/167/89 89/168/89 85/169/89
f 93/170/91 94/171/91 96/172/91 95/173/91
f 95/174/92 96/175/92 100/176/92 99/177/92
f 99/178/93 100/179/93 98/180/93 97/181/93
f 97/182/94 98/183/94 94/184/94 93/185/94
f 95/186/95 99/187/95 97/188/95 93/189/95
f 100/190/96 96/191/96 94/192/96 98/193/96
f 101/194/91 102/195/91 104/196/91 103/197/91
f 103/198/92 104/199/92 108/200/92 107/201/92
f 107/202/93 108/203/93 106/204/93 105/205/93
f 105/206/94 106/207/94 102/208/94 101/209/94
f 103/210/95 107/211/95 105/212/95 101/213/95
f 108/214/96 104/215/96 102/216/96 106/217/96
f 109/218/91 110/219/91 112/220/91 111/221/91
f 111/222/92 112/223/92 116/224/92 115/225/92
f 115/226/93 116/227/93 114/228/93 113/229/93
f 113/230/94 114/231/94 110/232/94 109/233/94
f 111/234/95 115/235/95 113/236/95 109/237/95
f 117/238/97 118/239/97 120/240/97 119/241/97
f 119/242/98 120/243/98 124/244/98 123/245/98
f 123/246/99 124/247/99 122/248/99 121/249/99
f 121/250/100 122/251/100 118/252/100 117/253/100
f 119/254/101 123/255/101 121/256/101 117/257/101
f 124/258/102 120/259/102 118/260/102 122/261/102
f 125/262/97 126/263/97 128/264/97 127/265/97
f 127/266/98 128/267/98 132/268/98 131/269/98
f 131/270/99 132/271/99 130/272/99 129/273/99
f 129/274/100 130/275/100 126/276/100 125/277/100
f 127/278/101 131/279/101 129/280/101 125/281/101
f 132/282/102 128/283/102 126/284/102 130/285/102
f 133/286/97 134/287/97 136/288/97 135/289/97
f 135/290/98 136/291/98 140/292/98 139/293/98
f 139/294/99 140/295/99 138/296/99 137/297/99
f 137/298/100 138/299/100 134/300/100 133/301/100
f 135/302/101 139/303/101 137/304/101 133/305/101
f 141/306/103 142/307/103 144/308/103 143/309/103
f 143/310/104 144/311/104 148/312/104 147/313/104
f 147/314/105 148/315/105 146/316/105 145/317/105
f 145/318/106 146/319/106 142/320/106 141/321/106
f 143/322/107 147/323/107 145/324/107 141/325/107
f 148/326/108 144/327/108 142/328/108 146/329/108
f 149/330/103 150/331/103 152/332/103 151/333/103
f 151/334/104 152/335/104 156/336/104 155/337/104
f 155/338/105 156/339/105 154/340/105 153/341/105
f 153/342/106 154/343/106 150/344/106 149/345/106
f 151/346/107 155/347/107 153/348/107 149/349/107
f 156/350/108 152/351/108 150/352/108 154/353/108
f 157/354/103 158/355/103 160/356/103 159/357/103
f 159/358/104 160/359/104 164/360/104 163/361/104
f 163/362/105 164/363/105 162/364/105 161/365/105
f 161/366/106 162/367/106 158/368/106 157/369/106
f 159/370/107 163/371/107 161/372/107 157/373/107
